<?xml version="1.0" encoding="UTF-8" standalone="no"?>
<svg
   viewBox="0 0 693.7 744.3"
   version="1.1"
   id="svg34"
   sodipodi:docname="HEH-logo.svg"
   inkscape:version="1.1 (c68e22c387, 2021-05-23)"
   xmlns:inkscape="http://www.inkscape.org/namespaces/inkscape"
   xmlns:sodipodi="http://sodipodi.sourceforge.net/DTD/sodipodi-0.dtd"
   xmlns="http://www.w3.org/2000/svg"
   xmlns:svg="http://www.w3.org/2000/svg">
  <defs
     id="defs38" />
  <sodipodi:namedview
     id="namedview36"
     pagecolor="#505050"
     bordercolor="#eeeeee"
     borderopacity="1"
     inkscape:pageshadow="0"
     inkscape:pageopacity="0"
     inkscape:pagecheckerboard="0"
     showgrid="false"
     inkscape:zoom="1.0815532"
     inkscape:cx="347.18589"
     inkscape:cy="372.14999"
     inkscape:window-width="1920"
     inkscape:window-height="1027"
     inkscape:window-x="-8"
     inkscape:window-y="1072"
     inkscape:window-maximized="1"
     inkscape:current-layer="svg34" />
  <path
     fill="#fff"
     d="M693.7 744.3H0V0h693.7z"
     id="path2"
     style="fill:none" />
  <path
     fill="#ce181e"
     d="M147.7 473.3H98v-49.6h49.7z"
     id="path4" />
  <path
     fill="#dca90e"
     d="M197.7 473.3h-50v-49.6h50z"
     id="path6" />
  <path
     fill="#d3641c"
     d="M247.3 473.3h-49.6v-49.6h49.6Z"
     id="path8" />
  <path
     fill="#6f2352"
     d="M297 473.3h-49.7v-49.6H297z"
     id="path10" />
  <path
     fill="#b16a80"
     d="M347 473.3h-50v-49.6h50z"
     id="path12" />
  <path
     fill="#99789d"
     d="M396.7 473.3H347v-49.6h49.7z"
     id="path14" />
  <path
     fill="#5b9091"
     d="M446.3 473.3h-49.6v-49.6h49.6Z"
     id="path16" />
  <path
     fill="#8c9c66"
     d="M496.3 473.3h-50v-49.6h50z"
     id="path18" />
  <path
     fill="#557d62"
     d="M546 473.3h-49.7v-49.6H546z"
     id="path20" />
  <path
     fill="#1c6061"
     d="M595.7 473.3H546v-49.6h49.7z"
     id="path22" />
  <path
     fill="#4e5151"
     d="M138.7 559.3H131v-29.6h-21v29.6h-7.7v-61.6h7.7V523h21v-25.3h7.7zM166 497.7h10.3l16.7 61.6h-8l-4.7-17h-19.6l-4.4 17h-8zm-3.7 38.6H179l-8-30zM201.7 497.7h7.6V541c0 9 3 13.3 10.4 13.3 8.3 0 10.6-4.6 10.6-13.3v-43.3h7.7V541c0 12-6.3 19.7-18.3 19.7-12.4 0-18-7-18-19.7zM271 559.3h-7.3v-55H248v-6.6h38.7v6.6H271zM297.7 497.7h31.6v6.6H305v19.4h23v6.6h-23v22.4h25.3v6.6h-32.6zM368.7 497.7h32v6.6h-24.4v19.4H399v6.6h-22.7v22.4h25.4v6.6h-33zM451.7 538.3c-.7 11.7-5.4 22.4-19 22.4-17.4 0-19.7-16.7-19.7-32.4 0-15.3 2.7-32 19.7-32 12.6 0 18 7 18.3 19.4h-8c0-7-2.3-13-10.3-13-10.4 0-11.7 11.6-11.7 25.6 0 14.4 1.3 26 11.7 26 9.3 0 10.6-8.6 11-16zM502.7 528.3c0 15.7-2.7 32.4-19.7 32.4-17.3 0-20-16.7-20-32.4 0-15.3 2.7-32 20-32 17 0 19.7 16.7 19.7 32zm-31.7 0c0 14.4 1.3 26 12 26 10.3 0 11.7-11.6 11.7-26 0-14-1.4-25.6-11.7-25.6-10.7 0-12 11.6-12 25.6zM517 497.7h7.7v55h25v6.6H517zM560.7 497.7h32v6.6h-24.4v19.4H591v6.6h-22.7v22.4h25.4v6.6h-33zM102.3 583.3h32v6.7H110v19.3h23v7h-23v22h25.3v6.7h-33zM150.7 583.3h9.6L181 635v-51.7h7.7V645H178l-19.7-50v50h-7.6zM301 645h-7.7v-29.7h-21V645h-7.6v-61.7h7.6v25.4h21v-25.4h7.7zM331.3 583.3h10.4l16.6 61.7h-8l-4.6-17H326l-4.3 17h-8zm-3.6 38.7h16.6l-8-30zM370.7 583.3h7.6V645h-7.6zM396.3 583.3h10l20.4 51.7h.3v-51.7h7.7V645H424l-19.7-50h-.3v50h-7.7ZM465 583.3h10l16.7 61.7h-8l-4.4-17h-19.6l-4.7 17h-8zm-4 38.7h16.7l-7.7-30h-.3zM503.3 583.3h7.7v43.4c0 9 3 13.3 10.7 13.3 8 0 10.3-4.7 10.3-13.3v-43.4h7.7v43.4c0 12-6 19.6-18 19.6-12.7 0-18.4-7-18.4-19.6zM576 645h-7.7v-55H553v-6.7h38.7v6.7H576z"
     id="path24" />
  <path
     fill="#aeafa0"
     d="M297.3 376a65 65 0 0 1-55.3-26.7c-.6-.7-1-1.6-1.7-2.3v50.3H345v-33c-17.3 8-33 11.7-47.7 11.7zM272.7 194c20.6-21.3 44.6-37 70.6-48l1.7-.7V98H240.3v107.7H196V98H98v299.3h98V271.7h33v-.4c5.3-26 19.7-52 43.7-77.3z"
     id="path26" />
  <path
     fill="#4e5151"
     d="M497.3 98v107.7h-46.6V98H345v47.3c17.3-6.6 34.3-9.6 51.7-9.6 27 0 40.6 9.6 40.6 30 0 21.6-15.6 44.3-47.3 66.6a208 208 0 0 1-45 24.4c-15.3 7-34 14-56 21.3-1.3 5-2 10-2 13.3 0 21.4 13 32 40.3 32 18.8-.7 39.1-5.2 54.7-12 18.7-8.3 41-21.6 68.7-39.6h46.6v125.6h98.4V98Z"
     id="path28" />
  <path
     fill="#aeafa0"
     d="M378.3 170.7c-19.1 3.2-36.1 15.8-50.3 29a157.1 157.1 0 0 0-33.3 49.3c21-9 35.4-15 50.3-26.7 15.8-12.4 39.6-33 40-45 .1-4.3-2.4-7.3-6.7-6.6z"
     id="path30" />
  <path
     fill="#4e5151"
     d="M345 364.3v33h105.7v-98c-35 24-68.6 50.5-105.7 65z"
     id="path32" />
</svg>
