<svg xmlns="http://www.w3.org/2000/svg" viewBox="0 0 574.33 83.67">
  <defs>
    <clipPath id="a" clipPathUnits="userSpaceOnUse">
      <path d="M0 1123h793.67V.33H0Z"/>
    </clipPath>
  </defs>
  <path d="M8.67 57.33H15V26.67H5.33v6.66H0V22h35.67v11.33h-5.34v-6.66H21v30.66h6V62H8.67zM40.67 57.33h6V26.67h-6V22H73v11.33h-5.33v-6.66H52.33v12.66h16.34V44H52.33v13.33h15.34v-7H73V62H40.67zM93 42v-.33l14.33-15h-5V22H119v4.67h-5l-14 15 13.67 15.66h6V62H110zM78.67 57.33h6V26.67h-6V22H96v4.67h-5.67v30.66h6.34V62h-18zM124 57.33h6V26.67h-6V22h11.67l21.66 30.67v-26h-5.66V22h17v4.67H163V62h-5.33l-22.34-31.67v27H141V62h-17zM173 57.33h6V26.67h-6V22h17.33v4.67h-5.66v30.66h5.66V62H173zM207 26.67h5.67V22h-17.34v4.67h6v30.66h-6V62h18v-4.67H207z"/>
  <path d="m247.67 45 7-17.33L261.33 45zm24.66 12.33L258 22h-14v4.67h5.67l-12.34 30.66h-7l-13.66-15.66 14-15h5V22H219v4.67h5.33l-14.66 15V42L227 62h21.67v-4.67H243l3-7.66h17l3.33 7.66h-6V62h17v-4.67zM293 83.67h.67V0H293zM310 35.67h1.33v-7H310v-1h4.33v1h-1.66v7H316V34h1.33v2.67H310zM324 32.67 322.67 29 321 32.67zm-6.33 3h1l2.66-7h-1v-1h3l3.34 8h1v1H324v-1h1.33l-1-1.67h-3.66l-.67 1.67h1.33v1h-3.66z"/>
  <path d="M440.67 810v-2h1v1.33h2c1 0 2-.33 2-1.33 0-2.33-5-1-5-4.33 0-1.67 1.33-2.34 3.33-2.34 1 0 2 0 2.67.34v2h-1.34v-1.34H444c-1.33 0-2 .34-2 1.34 0 2 5 1 5 4.33 0 1.67-1.67 2.33-3.33 2.33-1 0-2.34 0-3-.33z" clip-path="url(#a)" transform="translate(-109.67 -773.67)"/>
  <path d="M338.33 35.67h1.34v-7h-1.34v-1h7.34v2.66h-1.34v-1.66H341v3h3.67v1H341v3h3.33V34h1.34v2.67h-7.34z"/>
  <path d="M456.67 806c0-3 1.66-4.67 4.66-4.67 1.34 0 2.34.34 3 .67v2.33h-1v-1.66c-.66-.34-1.33-.34-2-.34-2 0-3.33 1.34-3.33 3.34 0 2.66 1.33 3.66 3.33 3.66 1.34 0 2.34-.33 3-1v1.34c-.66.33-1.66.66-3 .66-2.66 0-4.66-1.66-4.66-4.33z" clip-path="url(#a)" transform="translate(-109.67 -773.67)"/>
  <path d="M357.67 35.67H359v-7h-2.33v1.66h-1v-2.66h8v2.66h-1.34v-1.66h-2v7h1.34v1h-4zM364.33 35.67h1.34v-7h-1.34v-1h4v1H367v7h1.33v1h-4z"/>
  <path d="M486.67 805.67c0-2-1.34-3.34-3-3.34-2 0-3.34 1.34-3.34 3.34 0 2.33 1.34 3.66 3.34 3.66 1.66 0 3-1.33 3-3.66m-7.67 0c0-2.67 1.67-4.34 4.67-4.34 2.66 0 4.33 1.67 4.33 4.34 0 3-1.67 4.66-4.33 4.66-3 0-4.67-1.66-4.67-4.66z" clip-path="url(#a)" transform="translate(-109.67 -773.67)"/>
  <path d="M379.33 35.67h1.34v-7h-1.34v-1H382l4.67 7v-6h-1.34v-1h4v1H388v8h-1l-5-7v6h1.33v1h-4zM394.67 35.67h1.66v-7H394v1.66h-1v-2.66h7.67v2.66h-1v-1.66h-2.34v7H399v1h-4.33zM401.67 35.67H403v-7h-1.33v-1h7v2.66h-1v-1.66h-3.34v3H408v1h-3.67v3h3.34V34H409v2.67h-7.33z"/>
  <path d="M519.67 806c0-3 2-4.67 5-4.67 1 0 2.33.34 3 .67v2.33h-1.34v-1.66c-.33-.34-1-.34-1.66-.34-2 0-3.67 1.34-3.67 3.34 0 2.66 1.67 3.66 3.67 3.66 1 0 2.33-.33 3-1v1.34c-.67.33-1.67.66-3 .66-3 0-5-1.66-5-4.33z" clip-path="url(#a)" transform="translate(-109.67 -773.67)"/>
  <path d="M419 35.67h1.33v-7H419v-1h4v1h-1.33v3h4.66v-3h-1v-1H429v1h-1.33v7H429v1h-3.67v-1h1v-3h-4.66v3H423v1h-4zM430.33 35.67h1.34v-7h-1.34v-1h2.34l5 7v-6h-1.34v-1H440v1h-1v8h-1.33l-5-7v6H434v1h-3.67zM441 35.67h1.33v-7H441v-1h4v1h-1.33v7H445v1h-4z"/>
  <path d="M563.33 805.67c0-2-1.33-3.34-3-3.34-2 0-3.33 1.34-3.33 3.34 0 2.33 1.33 3.66 3.33 3.66 1.67 0 3-1.33 3-3.66m-3.33 4.66c-2.67 0-4.33-2-4.33-4.66 0-2.67 1.66-4.34 4.66-4.34 2.67 0 4.34 1.67 4.34 4.34 0 2.33-1 4-3 4.66l1.66 1-.66 1zM566.67 807.33v-5h-1v-1h3.66v1H568v5c0 1.34 1 2 2.33 2 1.34 0 2.34-.66 2.34-2v-5h-1.34v-1H575v1h-1.33v5c0 2-1.34 3-3.34 3-2 0-3.66-1-3.66-3z" clip-path="url(#a)" transform="translate(-109.67 -773.67)"/>
  <path d="M466.33 35.67h1.34v-7h-1.34v-1h7v2.66h-1v-1.66H469v3h3.67v1H469v3h3.33V34h1v2.67h-7z"/>
  <path d="M584.33 810v-2h1.34v1.33h1.66c1.34 0 2.34-.33 2.34-1.33 0-2.33-5-1-5-4.33 0-1.67 1.33-2.34 3-2.34 1 0 2 0 3 .34v2h-1.34v-1.34H588c-1.33 0-2 .34-2 1.34 0 2 4.67 1 4.67 4.33 0 1.67-1.34 2.33-3 2.33-1.34 0-2.34 0-3.34-.33zM595.33 806c0-3 1.67-4.67 4.67-4.67 1.33 0 2.67.34 3.33.67v2H602v-1.33c-.33-.34-1.33-.34-2-.34-2.33 0-3.67 1.34-3.67 3.67 0 2 1.34 3.33 3.67 3.33.67 0 1.67-.33 2.33-.33v-2.33H600v-1h4.33v1h-1v3c-.66.33-1.66.66-3.33.66-3 0-4.67-1.66-4.67-4.33zM609.33 806c1.67 0 2.34-1 2.34-2s-.67-1.67-2.34-1.67h-1.66V806zm-4.33 3.33h1.33v-7H605v-1h4.33c2 0 3.34 1 3.34 2.67 0 1.33-.67 2.33-1.67 2.67l1.33 2.66h1.34v1h-2.34l-1.66-3.33h-2v2.33H609v1h-4z" clip-path="url(#a)" transform="translate(-109.67 -773.67)"/>
  <path d="M510.67 32.67 509.33 29l-1.66 3.67zm-6.34 3h1l2.67-7h-1.33v-1H510l3 8h1.33v1h-4v-1h1.34L511 34h-3.67l-.66 1.67H508v1h-3.67z"/>
  <path d="M627 806h1.33c1.67 0 2.34-.67 2.34-1.67 0-1-.67-2-2.34-2H627zm-2.67 3.33h1.34v-7h-1.34v-1h4c2.34 0 3.67 1 3.67 3 0 1.67-1.33 2.67-3.67 2.67H627v2.33h1.67v1h-4.34z" clip-path="url(#a)" transform="translate(-109.67 -773.67)"/>
  <path d="M523 35.67h1.33v-7H523v-1h4v1h-1.33v3h4.66v-3H529v-1h4v1h-1.33v7H533v1h-4v-1h1.33v-3h-4.66v3H527v1h-4zM534.33 35.67h1v-7h-1v-1H538v1h-1.33v7H538v1h-3.67z"/>
  <path d="M656.67 805.67c0-2-1.34-3.34-3.34-3.34-2 0-3.33 1.34-3.33 3.34 0 2.33 1.33 3.66 3.33 3.66s3.34-1.33 3.34-3.66m-3.67 4.66c-2.67 0-4.33-2-4.33-4.66 0-2.67 2-4.34 4.66-4.34 2.67 0 4.67 1.67 4.67 4.34 0 2.33-1.33 4-3.33 4.66l2 1-.67 1zM660 807.33v-5h-1.33v-1h3.66v1H661v5c0 1.34 1.33 2 2.33 2 1.34 0 2.34-.66 2.34-2v-5h-1.34v-1H668v1h-1v5c0 2-1.67 3-3.67 3s-3.33-1-3.33-3z" clip-path="url(#a)" transform="translate(-109.67 -773.67)"/>
  <path d="M559.33 35.67h1.34v-7h-1.34v-1h7.34v2.66h-1.34v-1.66H562v3h3.67v1H562v3h3.33V34h1.34v2.67h-7.34z"/>
  <path d="M677.67 810v-2h1v1.33h2c1 0 2-.33 2-1.33 0-2.33-5-1-5-4.33 0-1.67 1.33-2.34 3.33-2.34 1 0 2 0 2.67.34v2h-1.34v-1.34H681c-1.33 0-2 .34-2 1.34 0 2 5 1 5 4.33 0 1.67-1.67 2.33-3.33 2.33-1 0-2.34 0-3-.33zM424 828.67c2 0 3.33-1.34 3.33-3.34 0-2-1.33-3.33-3.33-3.33h-1.67v6.67zm-4.33 0H421V822h-1.33v-1H424c2.67 0 4.67 1.67 4.67 4.33 0 2.67-2 4.34-4.67 4.34h-4.33z" clip-path="url(#a)" transform="translate(-109.67 -773.67)"/>
  <path d="M320 55h1.33v-6.67H320v-1h7v2.34h-1v-1.34h-3.33V51h3.66v1h-3.66v3H326v-1.33h1V56h-7zM331.67 55H333v-6.67h-1.33v-1h4v1h-1.34V55h3.34v-1.67h1V56h-7zM345.67 52.33l-1.67-4-1.33 4zM339 55h1.33l2.67-6.67h-1.33v-1h3L348 55h1v1h-3.67v-1h1.34l-.67-1.67h-4l-.67 1.67h1.34v1H339zM352.33 55h1.34v-6.67h-1.34v-1h4v1H355V51h4.67v-2.67h-1.34v-1h4v1H361V55h1.33v1h-4v-1h1.34v-2.67H355V55h1.33v1h-4zM369.33 52.33l-1.66-4-1.34 4zM362.67 55H364l2.67-6.67h-1.34v-1h3.34l3 7.67H373v1h-4v-1h1.33l-.66-1.67H366l-.67 1.67h1v1h-3.66z"/>
  <path d="M483.67 826.67V822h-1.34v-1H486v1h-1v4.67c0 1.66 1 2 2 2 1.33 0 2.33-.34 2.33-2V822H488v-1h4v1h-1.33v4.67c0 2-1.34 3.33-3.67 3.33-1.67 0-3.33-1-3.33-3.33z" clip-path="url(#a)" transform="translate(-109.67 -773.67)"/>
  <path d="M384.67 55H386v-6.67h-2v1.34h-1.33v-2.34h8v2.34h-1v-1.34h-2.34V55h1.34v1h-4zM391.67 55H393v-6.67h-1.33v-1h7v2.34h-1v-1.34H394V51h3.67v1H394v3h3.67v-1.33h1V56h-7zM403.33 55h1.34v-6.67h-1.34v-1h7v2.34h-1v-1.34h-3.66V51h3.66v1h-3.66v3h3.66v-1.33h1V56h-7z"/>
  <path d="M521.33 825.33c0-2.66 2-4.66 4.67-4.66 1.33 0 2.67.33 3.33.66v2.34H528V822c-.33 0-1.33-.33-2-.33-2 0-3.33 1.33-3.33 3.66 0 2.34 1.66 3.67 3.66 3.67 1 0 2-.67 3-1v1.33c-.66.34-2 .67-3.33.67-2.67 0-4.67-1.67-4.67-4.67zM538.33 825.33c0-2-1.33-3.66-3.33-3.66s-3.33 1.66-3.33 3.66c0 2.34 1.33 3.67 3.33 3.67 1.67 0 3.33-1.67 3.33-3.67m-8 0c0-2.66 2-4.66 4.67-4.66s4.33 2 4.33 4.66c0 2.67-1.66 4.67-4.33 4.67s-4.67-2-4.67-4.67z" clip-path="url(#a)" transform="translate(-109.67 -773.67)"/>
  <path d="M430.67 55H432v-6.67h-1.33v-1H435v1h-1.67V55h3.34v-1.67H438V56h-7.33zM438.67 55H440v-6.67h-1.33v-1H446v2.34h-1.33v-1.34h-3.34V51H445v1h-3.67v3H445v-1.33h1V56h-7.33zM450.33 55h1.34v-6.67h-1.34v-1h7.34v2.34h-1.34v-1.34H453V51h3.67v1H453v3h3.67v-1.33h1V56h-7.34zM459 55h1.33v-6.67H459v-1h2.67l4.66 6.67v-5.67H465v-1h4v1h-1.33V56h-1.34l-5-7v6h1.34v1H459zM473 55h1.33v-6.67H473v-1h4v1h-1.33V51h4.66v-2.67H479v-1h4v1h-1.33V55H483v1h-4v-1h1.33v-2.67h-4.66V55H477v1h-4zM490 52.33l-1.33-4-1.67 4zM483.67 55h1l2.66-6.67H486v-1h3.33l3 7.67h1.34v1h-4v-1H491l-.67-1.67h-3.66L486 55h1.33v1h-3.66zM494 55h1.33v-6.67H494v-1h4v1h-1.33V55H498v1h-4zM499 55h1.33v-6.67H499v-1h2.67l4.66 6.67v-5.67H505v-1h4v1h-1.33V56h-1l-5-7v6H503v1h-4zM515.67 52.33l-1.67-4-1.33 4zM509 55h1.33l2.67-6.67h-1.33v-1H515l3 7.67h1.33v1h-4v-1h1.34l-.67-1.67h-3.67l-.66 1.67h1v1H509z"/>
  <path d="M630 826.67V822h-1.33v-1h3.66v1h-1v4.67c0 1.66 1 2 2 2 1.34 0 2.34-.34 2.34-2V822h-1.34v-1h4v1H637v4.67c0 2-1.33 3.33-3.67 3.33-1.66 0-3.33-1-3.33-3.33Z" clip-path="url(#a)" transform="translate(-109.67 -773.67)"/>
  <path d="M531 55h1.33v-6.67h-2v1.34H529v-2.34h8v2.34h-1v-1.34h-2.33V55H535v1h-4z"/>
</svg>
